<svg width="199" height="156" fill="none" xmlns="http://www.w3.org/2000/svg"><path d="M102.148 155.752c37.279 0 67.5-6.939 67.5-15.5 0-8.56-30.221-15.5-67.5-15.5-37.28 0-67.5 6.94-67.5 15.5 0 8.561 30.22 15.5 67.5 15.5Z" fill="#EEEADC"/><path d="M185.648 97.033c-.001-14.37-2.992-28.556-8.752-41.52-5.76-12.964-14.144-24.376-24.537-33.4-10.393-9.025-22.532-15.433-35.526-18.754a83.352 83.352 0 0 0-39.57-.44C64.21 5.953 51.95 12.09 41.387 20.88 30.822 29.672 22.22 40.896 16.213 53.73c-6.007 12.833-9.269 26.95-9.546 41.316-.277 14.366 2.438 28.616 7.946 41.706H177.66c5.279-12.471 8.003-26.017 7.988-39.72Z" fill="#EEEADC"/><path d="M10.85 136.817h176.809m-187.011 0h5.667m185.878 0h5.667" stroke="#4D6447" stroke-linecap="round" stroke-linejoin="round"/><path d="M128.448 71.308H49.003a6.356 6.356 0 0 0-6.355 6.355v60.378a6.355 6.355 0 0 0 6.355 6.355h79.445a6.355 6.355 0 0 0 6.355-6.355V77.663a6.355 6.355 0 0 0-6.355-6.355Z" fill="#C9CBAB"/><path d="M128.448 71.308H49.003a6.356 6.356 0 0 0-6.355 6.355v60.378a6.355 6.355 0 0 0 6.355 6.355h79.445a6.355 6.355 0 0 0 6.355-6.355V77.663a6.355 6.355 0 0 0-6.355-6.355Z" stroke="#4D6447" stroke-linecap="round" stroke-linejoin="round"/><path d="M96.67 107.894a7.958 7.958 0 1 0-12.739 6.328v9.533a4.779 4.779 0 0 0 4.78 4.78 4.778 4.778 0 0 0 4.781-4.78v-9.533a7.96 7.96 0 0 0 3.178-6.328Z" fill="#98A481" stroke="#4D6447" stroke-linecap="round" stroke-linejoin="round"/><path d="M125.27 44.31a36.559 36.559 0 0 0-73.117 0v26.998h15.89V44.31a20.725 20.725 0 0 1 41.448 0v26.998h15.889l-.11-26.998Z" fill="#98A481"/><path d="M125.27 44.31a36.559 36.559 0 0 0-73.117 0v26.998h15.89V44.31a20.725 20.725 0 0 1 41.448 0v26.998h15.889l-.11-26.998Z" stroke="#4D6447" stroke-linecap="round" stroke-linejoin="round"/><path d="M167.295 127.303a4.545 4.545 0 0 0 0-6.471l-12.943-12.968a2.297 2.297 0 0 1 0-3.236l12.943-12.968a4.55 4.55 0 0 0 1.001-4.99 4.549 4.549 0 0 0-1.001-1.481l-8.102-8.102a4.596 4.596 0 0 0-6.472 0l-12.943 12.968a2.32 2.32 0 0 1-3.26 0l-12.943-12.968a4.62 4.62 0 0 0-6.497 0l-8.077 8.102a4.549 4.549 0 0 0 0 6.471l12.943 12.968a2.297 2.297 0 0 1 0 3.236l-12.943 12.968a4.545 4.545 0 0 0 0 6.471l8.077 8.127a4.58 4.58 0 0 0 3.249 1.355 4.576 4.576 0 0 0 3.248-1.355l12.943-12.968a2.323 2.323 0 0 1 3.26 0l12.943 12.968a4.556 4.556 0 0 0 3.236 1.353 4.555 4.555 0 0 0 3.236-1.353l8.102-8.127Z" fill="#98A481"/><path d="M167.295 127.303a4.545 4.545 0 0 0 0-6.471l-12.944-12.968a2.3 2.3 0 0 1 0-3.236l12.944-12.968a4.55 4.55 0 0 0 1.001-4.99 4.549 4.549 0 0 0-1.001-1.481l-8.102-8.102a4.596 4.596 0 0 0-6.472 0l-12.943 12.968a2.32 2.32 0 0 1-3.26 0l-12.943-12.968a4.62 4.62 0 0 0-6.497 0l-8.077 8.102a4.549 4.549 0 0 0 0 6.471l12.943 12.968a2.297 2.297 0 0 1 0 3.236l-12.943 12.968a4.545 4.545 0 0 0 0 6.471l8.077 8.127a4.58 4.58 0 0 0 3.249 1.355 4.576 4.576 0 0 0 3.248-1.355l12.943-12.968a2.323 2.323 0 0 1 3.26 0l12.943 12.968a4.556 4.556 0 0 0 3.236 1.353 4.555 4.555 0 0 0 3.236-1.353l8.102-8.127Z" stroke="#4D6447" stroke-linejoin="round"/></svg>